# xmcd CD database file
#
# Track frame offsets:
#	182
#	22802
#	38372
#	56485
#	71047
#	89682
#	112132
#	132065
#	150190
#	177780
#	193277
#	209362
#
# Disc length: 3066 seconds
#
# Revision: 0
# Processed by: cddbd v1.5.2PL0 Copyright (c) Steve Scherf et al.
# Submitted via: CDex 1.51
#
DISCID=9c0bf80c
DTITLE=Sweet Mama - Feeling good
DYEAR=1900
DGENRE=Jazz
TTITLE0=Mellow Saxophone
TTITLE1=How Can You Leave A Man Like This
TTITLE2=Feeling Good
TTITLE3=Walkin' The Dog
TTITLE4=Release Yourself
TTITLE5=Don't Say That No More
TTITLE6=Me And Brother Bill
TTITLE7=Black Rat
TTITLE8=One Scotch, One Bourbon, One Beer
TTITLE9=Grant Spivey
TTITLE10=Too Late
TTITLE11=Soul Train
EXTD=
EXTT0=
EXTT1=
EXTT2=
EXTT3=
EXTT4=
EXTT5=
EXTT6=
EXTT7=
EXTT8=
EXTT9=
EXTT10=
EXTT11=
PLAYORDER=
